<svg width="886" height="1503" viewBox="0 0 886 1503" fill="none" xmlns="http://www.w3.org/2000/svg">
<rect y="1" width="886" height="1502" fill="#F4F1F1"/>
<g filter="url(#filter0_d_139_250)">
<path d="M219.5 344L225 325.5H270.5L267.5 341L261 363.5L244 390L212 413L183.5 423V374L203.5 363.5L219.5 344Z" fill="#D9D9D9"/>
<path d="M219.5 344L225 325.5H270.5L267.5 341L261 363.5L244 390L212 413L183.5 423V374L203.5 363.5L219.5 344Z" stroke="#D9D9D9"/>
</g>
<rect x="607" y="1120" width="279" height="175" fill="#D9D9D9"/>
<rect x="348" y="1340" width="179" height="62" fill="#D9D9D9"/>
<rect x="341" y="1127" width="127" height="140" fill="#D9D9D9"/>
<rect y="1332" width="258" height="157" fill="#D9D9D9"/>
<rect y="1118" width="136" height="208" fill="#D9D9D9"/>
<rect y="940" width="140" height="174" fill="#D9D9D9"/>
<rect y="762" width="140" height="174" fill="#D9D9D9"/>
<rect y="580" width="140" height="177" fill="#D9D9D9"/>
<rect x="53" y="547" width="176" height="30" fill="#D9D9D9"/>
<rect x="441" y="160" width="30" height="148" fill="#D9D9D9"/>
<rect y="156" width="59" height="231" fill="#D9D9D9"/>
<rect x="124" y="201" width="33" height="107" fill="#D9D9D9"/>
<rect x="62" y="224" width="22" height="23" fill="#D9D9D9"/>
<rect x="62" y="290" width="22" height="23" fill="#D9D9D9"/>
<rect x="129" y="351" width="22" height="23" fill="#D9D9D9"/>
<rect x="198" y="272" width="22" height="23" fill="#D9D9D9"/>
<rect x="434" y="397" width="22" height="23" fill="#D9D9D9"/>
<rect x="537" y="750" width="22" height="119" fill="#D9D9D9"/>
<rect x="671" y="417" width="22" height="23" fill="#D9D9D9"/>
<rect x="704" y="417" width="22" height="23" fill="#D9D9D9"/>
<rect x="735" y="417" width="22" height="23" fill="#D9D9D9"/>
<rect x="762" y="417" width="22" height="23" fill="#D9D9D9"/>
<rect x="789" y="417" width="22" height="23" fill="#D9D9D9"/>
<rect x="789" y="529" width="22" height="23" fill="#D9D9D9"/>
<rect x="757" y="529" width="22" height="23" fill="#D9D9D9"/>
<rect x="730" y="529" width="22" height="23" fill="#D9D9D9"/>
<rect x="703" y="529" width="22" height="23" fill="#D9D9D9"/>
<rect x="671" y="529" width="22" height="23" fill="#D9D9D9"/>
<rect x="794" y="967" width="22" height="23" fill="#D9D9D9"/>
<rect x="762" y="967" width="22" height="23" fill="#D9D9D9"/>
<rect x="735" y="967" width="22" height="23" fill="#D9D9D9"/>
<rect x="708" y="967" width="22" height="23" fill="#D9D9D9"/>
<rect x="676" y="967" width="22" height="23" fill="#D9D9D9"/>
<rect x="795" y="1091" width="22" height="23" fill="#D9D9D9"/>
<rect x="763" y="1091" width="22" height="23" fill="#D9D9D9"/>
<rect x="736" y="1091" width="22" height="23" fill="#D9D9D9"/>
<rect x="709" y="1091" width="22" height="23" fill="#D9D9D9"/>
<rect x="677" y="1091" width="22" height="23" fill="#D9D9D9"/>
<rect x="182" y="350.556" width="22" height="23" transform="rotate(-45 182 350.556)" fill="#D9D9D9"/>
<rect x="224" y="201" width="44" height="124" fill="#D9D9D9"/>
<rect x="95" y="374" width="89" height="49" fill="#D9D9D9"/>
<rect x="475" y="160" width="30" height="148" fill="#D9D9D9"/>
<rect x="140" y="580" width="118" height="177" fill="#D9D9D9"/>
<rect x="140" y="762" width="118" height="174" fill="#D9D9D9"/>
<rect x="140" y="940" width="118" height="174" fill="#D9D9D9"/>
<rect x="140" y="1118" width="118" height="173" fill="#D9D9D9"/>
<rect x="140" y="1295" width="118" height="37" fill="#D9D9D9"/>
<rect x="341" y="951" width="90" height="173" fill="#D9D9D9"/>
<rect x="341" y="726" width="186" height="218" fill="#D9D9D9"/>
<rect x="437" y="951" width="90" height="173" fill="#D9D9D9"/>
<rect x="468" y="1127" width="59" height="140" fill="#D9D9D9"/>
<rect x="607" y="1314" width="279" height="175" fill="#D9D9D9"/>
<rect x="653" y="559" width="188" height="191" fill="#D9D9D9"/>
<rect x="339" y="440" width="99" height="280" fill="#D9D9D9"/>
<rect x="443" y="648" width="84" height="72" fill="#D9D9D9"/>
<rect x="443" y="440" width="84" height="202" fill="#D9D9D9"/>
<rect x="841" y="583" width="15" height="167" fill="#D9D9D9"/>
<rect x="653" y="757" width="209" height="198" fill="#D9D9D9"/>
<rect x="607" y="1" width="279" height="220" fill="#D9D9D9"/>
<rect y="1" width="205" height="155" fill="#D9D9D9"/>
<rect x="438" y="1" width="121" height="155" fill="#D9D9D9"/>
<rect x="214" y="1" width="148" height="155" fill="#D9D9D9"/>
<rect x="607" y="230" width="279" height="179" fill="#D9D9D9"/>
<path d="M416.564 69V62.8689H407.47V53.9508H399.026V46.1475H390.581V26.082H362V1H421.761V10.4754H438V69H416.564Z" fill="#D9D9D9" stroke="#D9D9D9"/>
<rect x="154" y="236" width="28" height="28" rx="14" transform="rotate(90 154 236)" fill="#07B5CA"/>
<path d="M141.849 244.091V255H139.217V246.552H139.153L136.714 248.043V245.763L139.404 244.091H141.849Z" fill="#111111"/>
<rect x="116" y="65" width="28" height="30" rx="14" transform="rotate(90 116 65)" fill="#07B5CA"/>
<path d="M96.8043 84V82.1037L100.783 78.62C101.082 78.3501 101.336 78.1033 101.545 77.8796C101.755 77.6523 101.914 77.4251 102.025 77.1978C102.135 76.967 102.19 76.7166 102.19 76.4467C102.19 76.1449 102.124 75.8874 101.993 75.6744C101.861 75.4577 101.68 75.2908 101.449 75.1737C101.218 75.0565 100.954 74.9979 100.656 74.9979C100.354 74.9979 100.089 75.06 99.8619 75.1843C99.6346 75.305 99.457 75.4808 99.3292 75.7116C99.2049 75.9425 99.1428 76.223 99.1428 76.5533L96.6445 76.5533C96.6445 75.8111 96.8114 75.1701 97.1452 74.6303C97.479 74.0906 97.9478 73.6751 98.5515 73.3839C99.1587 73.0891 99.8636 72.9418 100.666 72.9418C101.494 72.9418 102.213 73.0803 102.824 73.3572C103.434 73.6342 103.907 74.0213 104.24 74.5185C104.578 75.0121 104.746 75.5856 104.746 76.239C104.746 76.6545 104.663 77.0664 104.496 77.4748C104.329 77.8832 104.029 78.3342 103.596 78.8278C103.166 79.3214 102.555 79.9126 101.763 80.6016L100.458 81.8054V81.8746H104.88V84H96.8043Z" fill="#111111"/>
<rect x="144" y="642" width="28" height="31" rx="14" transform="rotate(90 144 642)" fill="#07B5CA"/>
<path d="M127.954 661.149C127.123 661.149 126.386 661.007 125.743 660.723C125.104 660.435 124.6 660.039 124.23 659.535C123.861 659.031 123.673 658.45 123.666 657.793H126.319C126.329 658.031 126.406 658.243 126.548 658.427C126.69 658.608 126.883 658.75 127.128 658.853C127.373 658.956 127.652 659.008 127.964 659.008C128.277 659.008 128.552 658.953 128.79 658.843C129.032 658.729 129.22 658.575 129.355 658.379C129.49 658.18 129.555 657.953 129.552 657.697C129.555 657.442 129.483 657.214 129.333 657.016C129.184 656.817 128.973 656.662 128.7 656.552C128.43 656.442 128.11 656.387 127.741 656.387H126.681V654.512H127.741C128.064 654.512 128.348 654.459 128.593 654.352C128.842 654.246 129.035 654.097 129.174 653.905C129.312 653.71 129.38 653.486 129.376 653.234C129.38 652.989 129.321 652.774 129.2 652.589C129.083 652.401 128.918 652.255 128.705 652.152C128.495 652.049 128.252 651.998 127.975 651.998C127.684 651.998 127.419 652.049 127.181 652.152C126.947 652.255 126.761 652.401 126.622 652.589C126.484 652.777 126.411 652.996 126.404 653.244H123.884C123.891 652.594 124.072 652.023 124.428 651.529C124.783 651.032 125.266 650.643 125.876 650.363C126.491 650.082 127.19 649.942 127.975 649.942C128.756 649.942 129.444 650.078 130.037 650.352C130.63 650.625 131.091 650.998 131.422 651.471C131.752 651.939 131.917 652.47 131.917 653.063C131.92 653.678 131.72 654.184 131.315 654.581C130.914 654.979 130.397 655.224 129.765 655.316V655.402C130.61 655.501 131.248 655.775 131.677 656.222C132.11 656.669 132.325 657.229 132.322 657.9C132.322 658.532 132.135 659.093 131.762 659.583C131.393 660.07 130.878 660.453 130.218 660.734C129.561 661.011 128.806 661.149 127.954 661.149Z" fill="#111111"/>
<rect x="144" y="841" width="28" height="46" rx="14" transform="rotate(90 144 841)" fill="#07B5CA"/>
<path opacity="0.4" d="M108.671 858.189V856.133L113.14 849.091H114.967V851.882H113.907L111.292 856.026V856.112H117.764V858.189H108.671ZM113.939 860V857.56L113.993 856.66V849.091H116.459V860H113.939ZM120.53 860.154C120.146 860.154 119.818 860.02 119.544 859.75C119.274 859.48 119.141 859.153 119.145 858.77C119.141 858.393 119.274 858.072 119.544 857.805C119.818 857.536 120.146 857.401 120.53 857.401C120.892 857.401 121.212 857.536 121.489 857.805C121.769 858.072 121.911 858.393 121.915 858.77C121.911 859.025 121.844 859.258 121.712 859.467C121.584 859.677 121.416 859.844 121.206 859.968C121 860.092 120.775 860.154 120.53 860.154ZM123.481 858.189V856.133L127.95 849.091H129.777V851.882H128.717L126.101 856.026V856.112H132.573V858.189H123.481ZM128.749 860V857.56L128.802 856.66V849.091H131.268V860H128.749Z" fill="#111111"/>
<rect x="101" y="1191" width="28" height="45" rx="14" transform="rotate(90 101 1191)" fill="#07B5CA"/>
<path d="M66.6712 1208.19V1206.13L71.1403 1199.09H72.9673V1201.88H71.9073L69.2919 1206.03V1206.11H75.7638V1208.19H66.6712ZM71.9393 1210V1207.56L71.9925 1206.66V1199.09H74.4588V1210H71.9393ZM78.5297 1210.15C78.1462 1210.15 77.8177 1210.02 77.5443 1209.75C77.2744 1209.48 77.1412 1209.15 77.1448 1208.77C77.1412 1208.39 77.2744 1208.07 77.5443 1207.81C77.8177 1207.54 78.1462 1207.4 78.5297 1207.4C78.892 1207.4 79.2116 1207.54 79.4885 1207.81C79.7691 1208.07 79.9111 1208.39 79.9147 1208.77C79.9111 1209.03 79.8437 1209.26 79.7123 1209.47C79.5844 1209.68 79.4157 1209.84 79.2062 1209.97C79.0003 1210.09 78.7748 1210.15 78.5297 1210.15ZM81.6139 1210V1208.1L85.593 1204.62C85.8912 1204.35 86.1452 1204.1 86.3547 1203.88C86.5642 1203.65 86.724 1203.43 86.8341 1203.2C86.9442 1202.97 86.9992 1202.72 86.9992 1202.45C86.9992 1202.14 86.9335 1201.89 86.8021 1201.67C86.6707 1201.46 86.4896 1201.29 86.2588 1201.17C86.028 1201.06 85.7634 1201 85.4651 1201C85.1633 1201 84.8987 1201.06 84.6714 1201.18C84.4442 1201.31 84.2666 1201.48 84.1388 1201.71C84.0145 1201.94 83.9523 1202.22 83.9523 1202.55H81.4541C81.4541 1201.81 81.621 1201.17 81.9548 1200.63C82.2886 1200.09 82.7574 1199.68 83.3611 1199.38C83.9683 1199.09 84.6732 1198.94 85.4758 1198.94C86.3032 1198.94 87.0223 1199.08 87.6331 1199.36C88.2439 1199.63 88.7162 1200.02 89.05 1200.52C89.3873 1201.01 89.556 1201.59 89.556 1202.24C89.556 1202.65 89.4726 1203.07 89.3057 1203.47C89.1388 1203.88 88.8387 1204.33 88.4054 1204.83C87.9758 1205.32 87.365 1205.91 86.5731 1206.6L85.268 1207.81V1207.87H89.6892L89.6892 1210H81.6139Z" fill="#111111"/>
<rect x="776" y="1411" width="28" height="45" rx="14" transform="rotate(90 776 1411)" fill="#07B5CA"/>
<path d="M741.671 1428.19V1426.13L746.14 1419.09H747.967V1421.88H746.907L744.292 1426.03V1426.11H750.764V1428.19H741.671ZM746.939 1430V1427.56L746.993 1426.66V1419.09H749.459V1430H746.939ZM753.53 1430.15C753.146 1430.15 752.818 1430.02 752.544 1429.75C752.274 1429.48 752.141 1429.15 752.145 1428.77C752.141 1428.39 752.274 1428.07 752.544 1427.81C752.818 1427.54 753.146 1427.4 753.53 1427.4C753.892 1427.4 754.212 1427.54 754.489 1427.81C754.769 1428.07 754.911 1428.39 754.915 1428.77C754.911 1429.03 754.844 1429.26 754.712 1429.47C754.584 1429.68 754.416 1429.84 754.206 1429.97C754 1430.09 753.775 1430.15 753.53 1430.15ZM760.746 1430.15C759.951 1430.15 759.244 1430.01 758.626 1429.72C758.008 1429.43 757.52 1429.03 757.161 1428.53C756.806 1428.03 756.621 1427.45 756.607 1426.79H759.164C759.185 1427.19 759.349 1427.52 759.654 1427.76C759.96 1428 760.324 1428.12 760.746 1428.12C761.076 1428.12 761.369 1428.05 761.625 1427.91C761.881 1427.76 762.081 1427.56 762.227 1427.29C762.373 1427.03 762.444 1426.72 762.44 1426.38C762.444 1426.03 762.371 1425.72 762.222 1425.46C762.076 1425.19 761.874 1424.99 761.614 1424.84C761.359 1424.69 761.064 1424.62 760.73 1424.62C760.414 1424.62 760.114 1424.69 759.83 1424.83C759.549 1424.97 759.336 1425.16 759.191 1425.41L756.863 1424.97L757.337 1419.09H764.336V1421.22H759.505L759.255 1423.79H759.319C759.5 1423.49 759.791 1423.24 760.192 1423.04C760.597 1422.84 761.057 1422.75 761.572 1422.75C762.225 1422.75 762.808 1422.9 763.319 1423.2C763.834 1423.5 764.239 1423.92 764.533 1424.46C764.832 1425 764.981 1425.61 764.981 1426.3C764.981 1427.05 764.803 1427.72 764.448 1428.3C764.097 1428.87 763.603 1429.33 762.967 1429.66C762.335 1429.99 761.595 1430.15 760.746 1430.15Z" fill="#111111"/>
<rect x="769" y="1183" width="28" height="45" rx="14" transform="rotate(90 769 1183)" fill="#07B5CA"/>
<path d="M734.671 1200.19V1198.13L739.14 1191.09H740.967V1193.88H739.907L737.292 1198.03V1198.11H743.764V1200.19H734.671ZM739.939 1202V1199.56L739.993 1198.66V1191.09H742.459V1202H739.939ZM746.53 1202.15C746.146 1202.15 745.818 1202.02 745.544 1201.75C745.274 1201.48 745.141 1201.15 745.145 1200.77C745.141 1200.39 745.274 1200.07 745.544 1199.81C745.818 1199.54 746.146 1199.4 746.53 1199.4C746.892 1199.4 747.212 1199.54 747.489 1199.81C747.769 1200.07 747.911 1200.39 747.915 1200.77C747.911 1201.03 747.844 1201.26 747.712 1201.47C747.584 1201.68 747.416 1201.84 747.206 1201.97C747 1202.09 746.775 1202.15 746.53 1202.15ZM753.518 1202.15C752.922 1202.15 752.35 1202.05 751.803 1201.86C751.256 1201.67 750.77 1201.36 750.344 1200.93C749.918 1200.51 749.582 1199.95 749.337 1199.26C749.092 1198.57 748.971 1197.73 748.975 1196.73C748.978 1195.83 749.088 1195.03 749.305 1194.31C749.522 1193.6 749.831 1192.99 750.232 1192.49C750.637 1191.99 751.12 1191.6 751.681 1191.34C752.245 1191.07 752.876 1190.94 753.572 1190.94C754.335 1190.94 755.008 1191.09 755.59 1191.39C756.176 1191.68 756.645 1192.08 756.997 1192.58C757.348 1193.08 757.556 1193.63 757.62 1194.24H755.026C754.948 1193.9 754.775 1193.64 754.509 1193.46C754.246 1193.28 753.934 1193.19 753.572 1193.19C752.904 1193.19 752.405 1193.48 752.075 1194.06C751.748 1194.64 751.581 1195.41 751.574 1196.38H751.643C751.793 1196.05 752.007 1195.77 752.288 1195.54C752.568 1195.3 752.89 1195.12 753.252 1195C753.618 1194.87 754.005 1194.81 754.413 1194.81C755.067 1194.81 755.644 1194.96 756.144 1195.26C756.645 1195.56 757.038 1195.98 757.322 1196.5C757.606 1197.02 757.746 1197.62 757.742 1198.3C757.746 1199.06 757.568 1199.73 757.21 1200.31C756.851 1200.89 756.354 1201.34 755.718 1201.66C755.086 1201.99 754.353 1202.15 753.518 1202.15ZM753.502 1200.12C753.826 1200.12 754.115 1200.05 754.371 1199.9C754.626 1199.74 754.827 1199.54 754.973 1199.27C755.118 1199.01 755.189 1198.71 755.186 1198.38C755.189 1198.05 755.118 1197.75 754.973 1197.49C754.831 1197.23 754.632 1197.03 754.376 1196.88C754.124 1196.72 753.834 1196.65 753.508 1196.65C753.27 1196.65 753.048 1196.69 752.842 1196.78C752.636 1196.87 752.457 1196.99 752.304 1197.15C752.155 1197.31 752.038 1197.49 751.952 1197.71C751.867 1197.92 751.823 1198.14 751.819 1198.39C751.823 1198.71 751.897 1199 752.043 1199.27C752.188 1199.53 752.387 1199.74 752.639 1199.9C752.892 1200.05 753.179 1200.12 753.502 1200.12Z" fill="#111111"/>
<rect x="450" y="1180" width="28" height="31" rx="14" transform="rotate(90 450 1180)" fill="#07B5CA"/>
<path d="M434.178 1199.15C433.581 1199.15 433.009 1199.05 432.462 1198.86C431.915 1198.67 431.429 1198.36 431.003 1197.93C430.577 1197.51 430.241 1196.95 429.996 1196.26C429.751 1195.57 429.63 1194.73 429.634 1193.73C429.637 1192.83 429.748 1192.03 429.964 1191.31C430.181 1190.6 430.49 1189.99 430.891 1189.49C431.296 1188.99 431.779 1188.6 432.34 1188.34C432.904 1188.07 433.535 1187.94 434.231 1187.94C434.994 1187.94 435.667 1188.09 436.25 1188.39C436.836 1188.68 437.304 1189.08 437.656 1189.58C438.007 1190.08 438.215 1190.63 438.279 1191.24H435.685C435.607 1190.9 435.435 1190.64 435.168 1190.46C434.906 1190.28 434.593 1190.19 434.231 1190.19C433.563 1190.19 433.064 1190.48 432.734 1191.06C432.407 1191.64 432.24 1192.41 432.233 1193.38H432.303C432.452 1193.05 432.667 1192.77 432.947 1192.54C433.228 1192.3 433.549 1192.12 433.911 1192C434.277 1191.87 434.664 1191.81 435.072 1191.81C435.726 1191.81 436.303 1191.96 436.804 1192.26C437.304 1192.56 437.697 1192.98 437.981 1193.5C438.265 1194.02 438.405 1194.62 438.402 1195.3C438.405 1196.06 438.228 1196.73 437.869 1197.31C437.51 1197.89 437.013 1198.34 436.377 1198.66C435.745 1198.99 435.012 1199.15 434.178 1199.15ZM434.162 1197.12C434.485 1197.12 434.774 1197.05 435.03 1196.9C435.286 1196.74 435.486 1196.54 435.632 1196.27C435.777 1196.01 435.848 1195.71 435.845 1195.38C435.848 1195.05 435.777 1194.75 435.632 1194.49C435.49 1194.23 435.291 1194.03 435.035 1193.88C434.783 1193.72 434.494 1193.65 434.167 1193.65C433.929 1193.65 433.707 1193.69 433.501 1193.78C433.295 1193.87 433.116 1193.99 432.963 1194.15C432.814 1194.31 432.697 1194.49 432.612 1194.71C432.526 1194.92 432.482 1195.14 432.478 1195.39C432.482 1195.71 432.556 1196 432.702 1196.27C432.848 1196.53 433.047 1196.74 433.299 1196.9C433.551 1197.05 433.838 1197.12 434.162 1197.12Z" fill="#111111"/>
<rect x="450" y="807" width="28" height="31" rx="14" transform="rotate(90 450 807)" fill="#07B5CA"/>
<path d="M434.066 826.149C433.217 826.149 432.459 826.014 431.791 825.744C431.127 825.471 430.605 825.102 430.225 824.636C429.849 824.168 429.661 823.638 429.661 823.049C429.661 822.598 429.769 822.184 429.985 821.808C430.202 821.431 430.495 821.119 430.864 820.87C431.237 820.618 431.653 820.457 432.111 820.386V820.3C431.511 820.19 431.019 819.912 430.635 819.464C430.255 819.017 430.065 818.493 430.065 817.893C430.065 817.325 430.238 816.819 430.582 816.375C430.93 815.931 431.404 815.581 432.004 815.325C432.608 815.07 433.295 814.942 434.066 814.942C434.836 814.942 435.522 815.07 436.122 815.325C436.725 815.581 437.2 815.931 437.544 816.375C437.892 816.819 438.066 817.325 438.066 817.893C438.066 818.496 437.873 819.022 437.485 819.469C437.102 819.913 436.614 820.19 436.021 820.3V820.386C436.475 820.457 436.887 820.618 437.256 820.87C437.629 821.119 437.924 821.431 438.141 821.808C438.361 822.184 438.471 822.598 438.471 823.049C438.471 823.638 438.281 824.168 437.901 824.636C437.521 825.102 436.999 825.471 436.335 825.744C435.674 826.014 434.918 826.149 434.066 826.149ZM434.066 824.279C434.389 824.279 434.673 824.219 434.918 824.098C435.163 823.974 435.355 823.802 435.493 823.582C435.635 823.362 435.706 823.113 435.706 822.836C435.706 822.552 435.635 822.3 435.493 822.08C435.351 821.859 435.156 821.687 434.907 821.563C434.662 821.435 434.382 821.371 434.066 821.371C433.753 821.371 433.473 821.435 433.224 821.563C432.975 821.687 432.78 821.859 432.638 822.08C432.496 822.3 432.425 822.552 432.425 822.836C432.425 823.113 432.494 823.362 432.633 823.582C432.775 823.798 432.968 823.969 433.213 824.093C433.462 824.217 433.746 824.279 434.066 824.279ZM434.066 819.512C434.343 819.512 434.588 819.455 434.801 819.342C435.017 819.228 435.186 819.07 435.307 818.868C435.431 818.665 435.493 818.436 435.493 818.18C435.493 817.925 435.431 817.699 435.307 817.504C435.186 817.309 435.019 817.156 434.806 817.046C434.593 816.932 434.346 816.875 434.066 816.875C433.789 816.875 433.542 816.932 433.325 817.046C433.109 817.156 432.94 817.309 432.819 817.504C432.699 817.699 432.638 817.925 432.638 818.18C432.638 818.436 432.699 818.665 432.819 818.868C432.944 819.066 433.114 819.224 433.331 819.342C433.547 819.455 433.792 819.512 434.066 819.512Z" fill="#111111"/>
<rect x="497" y="513" width="28" height="39" rx="14" transform="rotate(90 497 513)" fill="#07B5CA"/>
<path d="M473.849 521.091V532H471.217V523.552H471.153L468.714 525.043V522.763L471.404 521.091H473.849ZM480.772 532.266C479.82 532.266 479 532.041 478.311 531.59C477.622 531.135 477.091 530.484 476.718 529.635C476.346 528.783 476.161 527.758 476.165 526.561C476.168 525.365 476.354 524.349 476.724 523.515C477.097 522.676 477.626 522.039 478.311 521.602C479 521.162 479.82 520.942 480.772 520.942C481.724 520.942 482.544 521.162 483.233 521.602C483.926 522.039 484.458 522.676 484.831 523.515C485.204 524.353 485.389 525.368 485.385 526.561C485.385 527.762 485.199 528.788 484.826 529.64C484.453 530.493 483.922 531.144 483.233 531.595C482.548 532.043 481.727 532.266 480.772 532.266ZM480.772 530.109C481.34 530.109 481.8 529.82 482.152 529.241C482.503 528.658 482.677 527.765 482.674 526.561C482.674 525.773 482.594 525.123 482.434 524.612C482.274 524.097 482.052 523.713 481.768 523.461C481.484 523.209 481.152 523.083 480.772 523.083C480.207 523.083 479.751 523.369 479.403 523.941C479.055 524.509 478.879 525.382 478.876 526.561C478.872 527.36 478.949 528.023 479.105 528.548C479.265 529.074 479.488 529.466 479.776 529.725C480.064 529.981 480.396 530.109 480.772 530.109Z" fill="#111111"/>
<rect x="514" y="65" width="28" height="38" rx="14" transform="rotate(90 514 65)" fill="#07B5CA"/>
<path d="M491.849 73.0909V84H489.217V75.5518H489.153L486.714 77.0433V74.7635L489.404 73.0909H491.849ZM494.26 84V82.1037L498.239 78.62C498.538 78.3501 498.792 78.1033 499.001 77.8796C499.211 77.6523 499.37 77.4251 499.481 77.1978C499.591 76.967 499.646 76.7166 499.646 76.4467C499.646 76.1449 499.58 75.8874 499.449 75.6744C499.317 75.4577 499.136 75.2908 498.905 75.1737C498.674 75.0565 498.41 74.9979 498.112 74.9979C497.81 74.9979 497.545 75.06 497.318 75.1843C497.091 75.305 496.913 75.4808 496.785 75.7116C496.661 75.9425 496.599 76.223 496.599 76.5533H494.101C494.101 75.8111 494.267 75.1701 494.601 74.6303C494.935 74.0906 495.404 73.6751 496.008 73.3839C496.615 73.0891 497.32 72.9418 498.122 72.9418C498.95 72.9418 499.669 73.0803 500.28 73.3572C500.89 73.6342 501.363 74.0213 501.696 74.5185C502.034 75.0121 502.203 75.5856 502.203 76.239C502.203 76.6545 502.119 77.0664 501.952 77.4748C501.785 77.8832 501.485 78.3342 501.052 78.8278C500.622 79.3214 500.011 79.9126 499.22 80.6016L497.915 81.8054V81.8746H502.336V84H494.26Z" fill="#111111"/>
<rect x="768" y="83" width="28" height="30" rx="14" transform="rotate(90 768 83)" fill="#07B5CA"/>
<path d="M752.98 102.149C752.185 102.149 751.478 102.005 750.86 101.718C750.243 101.43 749.754 101.034 749.396 100.53C749.04 100.026 748.856 99.4467 748.842 98.7933H751.398C751.42 99.1946 751.583 99.5178 751.888 99.7628C752.194 100.004 752.558 100.125 752.98 100.125C753.311 100.125 753.604 100.052 753.859 99.9066C754.115 99.761 754.316 99.5568 754.461 99.294C754.607 99.0277 754.678 98.7223 754.674 98.3778C754.678 98.0263 754.605 97.7191 754.456 97.4563C754.31 97.1935 754.108 96.9893 753.849 96.8437C753.593 96.6946 753.298 96.62 752.964 96.62C752.648 96.6165 752.348 96.6857 752.064 96.8278C751.784 96.9698 751.571 97.1634 751.425 97.4084L749.097 96.9716L749.571 91.0909H756.571V93.2163H751.739L751.489 95.7891H751.553C751.734 95.4872 752.025 95.2386 752.426 95.0433C752.831 94.8445 753.291 94.745 753.806 94.745C754.46 94.745 755.042 94.8977 755.553 95.2031C756.068 95.505 756.473 95.924 756.768 96.4602C757.066 96.9964 757.215 97.6108 757.215 98.3033C757.215 99.0526 757.038 99.7166 756.683 100.295C756.331 100.874 755.837 101.329 755.202 101.659C754.57 101.986 753.829 102.149 752.98 102.149Z" fill="#111111"/>
<rect x="492" y="220" width="28" height="38" rx="14" transform="rotate(90 492 220)" fill="#69E18B" fill-opacity="0.76"/>
<path d="M469.849 228.091V239H467.217V230.552H467.153L464.714 232.043V229.763L467.404 228.091H469.849ZM476.41 239.149C475.579 239.149 474.842 239.007 474.199 238.723C473.56 238.435 473.056 238.039 472.687 237.535C472.317 237.031 472.129 236.45 472.122 235.793H474.775C474.785 236.031 474.862 236.243 475.004 236.427C475.146 236.608 475.339 236.75 475.584 236.853C475.829 236.956 476.108 237.008 476.421 237.008C476.733 237.008 477.008 236.953 477.246 236.843C477.488 236.729 477.676 236.575 477.811 236.379C477.946 236.18 478.011 235.953 478.008 235.697C478.011 235.442 477.939 235.214 477.79 235.016C477.64 234.817 477.429 234.662 477.156 234.552C476.886 234.442 476.566 234.387 476.197 234.387H475.137V232.512H476.197C476.52 232.512 476.804 232.459 477.049 232.352C477.298 232.246 477.491 232.097 477.63 231.905C477.768 231.71 477.836 231.486 477.832 231.234C477.836 230.989 477.777 230.774 477.656 230.589C477.539 230.401 477.374 230.255 477.161 230.152C476.951 230.049 476.708 229.998 476.431 229.998C476.14 229.998 475.875 230.049 475.638 230.152C475.403 230.255 475.217 230.401 475.078 230.589C474.94 230.777 474.867 230.996 474.86 231.244H472.34C472.347 230.594 472.528 230.023 472.884 229.529C473.239 229.032 473.722 228.643 474.332 228.363C474.947 228.082 475.646 227.942 476.431 227.942C477.212 227.942 477.9 228.078 478.493 228.352C479.086 228.625 479.547 228.998 479.878 229.471C480.208 229.939 480.373 230.47 480.373 231.063C480.377 231.678 480.176 232.184 479.771 232.581C479.37 232.979 478.853 233.224 478.221 233.316V233.402C479.066 233.501 479.704 233.775 480.133 234.222C480.566 234.669 480.781 235.229 480.778 235.9C480.778 236.532 480.591 237.093 480.218 237.583C479.849 238.07 479.334 238.453 478.674 238.734C478.017 239.011 477.262 239.149 476.41 239.149Z" fill="#111111"/>
<rect x="160" y="541" width="28" height="38" rx="14" transform="rotate(90 160 541)" fill="#69E18B" fill-opacity="0.76"/>
<path d="M137.849 549.091V560H135.217V551.552H135.153L132.714 553.043V550.763L135.404 549.091H137.849ZM144.41 560.149C143.579 560.149 142.842 560.007 142.199 559.723C141.56 559.435 141.056 559.039 140.687 558.535C140.317 558.031 140.129 557.45 140.122 556.793H142.775C142.785 557.031 142.862 557.243 143.004 557.427C143.146 557.608 143.339 557.75 143.584 557.853C143.829 557.956 144.108 558.008 144.421 558.008C144.733 558.008 145.008 557.953 145.246 557.843C145.488 557.729 145.676 557.575 145.811 557.379C145.946 557.18 146.011 556.953 146.008 556.697C146.011 556.442 145.939 556.214 145.79 556.016C145.64 555.817 145.429 555.662 145.156 555.552C144.886 555.442 144.566 555.387 144.197 555.387H143.137V553.512H144.197C144.52 553.512 144.804 553.459 145.049 553.352C145.298 553.246 145.491 553.097 145.63 552.905C145.768 552.71 145.836 552.486 145.832 552.234C145.836 551.989 145.777 551.774 145.656 551.589C145.539 551.401 145.374 551.255 145.161 551.152C144.951 551.049 144.708 550.998 144.431 550.998C144.14 550.998 143.875 551.049 143.638 551.152C143.403 551.255 143.217 551.401 143.078 551.589C142.94 551.777 142.867 551.996 142.86 552.244H140.34C140.347 551.594 140.528 551.023 140.884 550.529C141.239 550.032 141.722 549.643 142.332 549.363C142.947 549.082 143.646 548.942 144.431 548.942C145.212 548.942 145.9 549.078 146.493 549.352C147.086 549.625 147.547 549.998 147.878 550.471C148.208 550.939 148.373 551.47 148.373 552.063C148.377 552.678 148.176 553.184 147.771 553.581C147.37 553.979 146.853 554.224 146.221 554.316V554.402C147.066 554.501 147.704 554.775 148.133 555.222C148.566 555.669 148.781 556.229 148.778 556.9C148.778 557.532 148.591 558.093 148.218 558.583C147.849 559.07 147.334 559.453 146.674 559.734C146.017 560.011 145.262 560.149 144.41 560.149Z" fill="#111111"/>
<rect x="770" y="418" width="28" height="38" rx="14" transform="rotate(90 770 418)" fill="#69E18B" fill-opacity="0.76"/>
<path d="M747.849 426.091V437H745.217V428.552H745.153L742.714 430.043V427.763L745.404 426.091H747.849ZM754.41 437.149C753.579 437.149 752.842 437.007 752.199 436.723C751.56 436.435 751.056 436.039 750.687 435.535C750.317 435.031 750.129 434.45 750.122 433.793H752.775C752.785 434.031 752.862 434.243 753.004 434.427C753.146 434.608 753.339 434.75 753.584 434.853C753.829 434.956 754.108 435.008 754.421 435.008C754.733 435.008 755.008 434.953 755.246 434.843C755.488 434.729 755.676 434.575 755.811 434.379C755.946 434.18 756.011 433.953 756.008 433.697C756.011 433.442 755.939 433.214 755.79 433.016C755.64 432.817 755.429 432.662 755.156 432.552C754.886 432.442 754.566 432.387 754.197 432.387H753.137V430.512H754.197C754.52 430.512 754.804 430.459 755.049 430.352C755.298 430.246 755.491 430.097 755.63 429.905C755.768 429.71 755.836 429.486 755.832 429.234C755.836 428.989 755.777 428.774 755.656 428.589C755.539 428.401 755.374 428.255 755.161 428.152C754.951 428.049 754.708 427.998 754.431 427.998C754.14 427.998 753.875 428.049 753.638 428.152C753.403 428.255 753.217 428.401 753.078 428.589C752.94 428.777 752.867 428.996 752.86 429.244H750.34C750.347 428.594 750.528 428.023 750.884 427.529C751.239 427.032 751.722 426.643 752.332 426.363C752.947 426.082 753.646 425.942 754.431 425.942C755.212 425.942 755.9 426.078 756.493 426.352C757.086 426.625 757.547 426.998 757.878 427.471C758.208 427.939 758.373 428.47 758.373 429.063C758.377 429.678 758.176 430.184 757.771 430.581C757.37 430.979 756.853 431.224 756.221 431.316V431.402C757.066 431.501 757.704 431.775 758.133 432.222C758.566 432.669 758.781 433.229 758.778 433.9C758.778 434.532 758.591 435.093 758.218 435.583C757.849 436.07 757.334 436.453 756.674 436.734C756.017 437.011 755.262 437.149 754.41 437.149Z" fill="#111111"/>
<rect x="765" y="990" width="28" height="38" rx="14" transform="rotate(90 765 990)" fill="#69E18B" fill-opacity="0.76"/>
<path d="M742.849 998.091V1009H740.217V1000.55H740.153L737.714 1002.04V999.763L740.404 998.091H742.849ZM749.41 1009.15C748.579 1009.15 747.842 1009.01 747.199 1008.72C746.56 1008.44 746.056 1008.04 745.687 1007.54C745.317 1007.03 745.129 1006.45 745.122 1005.79H747.775C747.785 1006.03 747.862 1006.24 748.004 1006.43C748.146 1006.61 748.339 1006.75 748.584 1006.85C748.829 1006.96 749.108 1007.01 749.421 1007.01C749.733 1007.01 750.008 1006.95 750.246 1006.84C750.488 1006.73 750.676 1006.57 750.811 1006.38C750.946 1006.18 751.011 1005.95 751.008 1005.7C751.011 1005.44 750.939 1005.21 750.79 1005.02C750.64 1004.82 750.429 1004.66 750.156 1004.55C749.886 1004.44 749.566 1004.39 749.197 1004.39H748.137V1002.51H749.197C749.52 1002.51 749.804 1002.46 750.049 1002.35C750.298 1002.25 750.491 1002.1 750.63 1001.9C750.768 1001.71 750.836 1001.49 750.832 1001.23C750.836 1000.99 750.777 1000.77 750.656 1000.59C750.539 1000.4 750.374 1000.26 750.161 1000.15C749.951 1000.05 749.708 999.998 749.431 999.998C749.14 999.998 748.875 1000.05 748.638 1000.15C748.403 1000.26 748.217 1000.4 748.078 1000.59C747.94 1000.78 747.867 1001 747.86 1001.24H745.34C745.347 1000.59 745.528 1000.02 745.884 999.529C746.239 999.032 746.722 998.643 747.332 998.363C747.947 998.082 748.646 997.942 749.431 997.942C750.212 997.942 750.9 998.078 751.493 998.352C752.086 998.625 752.547 998.998 752.878 999.471C753.208 999.939 753.373 1000.47 753.373 1001.06C753.377 1001.68 753.176 1002.18 752.771 1002.58C752.37 1002.98 751.853 1003.22 751.221 1003.32V1003.4C752.066 1003.5 752.704 1003.77 753.133 1004.22C753.566 1004.67 753.781 1005.23 753.778 1005.9C753.778 1006.53 753.591 1007.09 753.218 1007.58C752.849 1008.07 752.334 1008.45 751.674 1008.73C751.017 1009.01 750.262 1009.15 749.41 1009.15Z" fill="#111111"/>
<rect x="582" y="796" width="28" height="38" rx="14" transform="rotate(90 582 796)" fill="#69E18B" fill-opacity="0.76"/>
<path d="M559.849 804.091V815H557.217V806.552H557.153L554.714 808.043V805.763L557.404 804.091H559.849ZM566.41 815.149C565.579 815.149 564.842 815.007 564.199 814.723C563.56 814.435 563.056 814.039 562.687 813.535C562.317 813.031 562.129 812.45 562.122 811.793H564.775C564.785 812.031 564.862 812.243 565.004 812.427C565.146 812.608 565.339 812.75 565.584 812.853C565.829 812.956 566.108 813.008 566.421 813.008C566.733 813.008 567.008 812.953 567.246 812.843C567.488 812.729 567.676 812.575 567.811 812.379C567.946 812.18 568.011 811.953 568.008 811.697C568.011 811.442 567.939 811.214 567.79 811.016C567.64 810.817 567.429 810.662 567.156 810.552C566.886 810.442 566.566 810.387 566.197 810.387H565.137V808.512H566.197C566.52 808.512 566.804 808.459 567.049 808.352C567.298 808.246 567.491 808.097 567.63 807.905C567.768 807.71 567.836 807.486 567.832 807.234C567.836 806.989 567.777 806.774 567.656 806.589C567.539 806.401 567.374 806.255 567.161 806.152C566.951 806.049 566.708 805.998 566.431 805.998C566.14 805.998 565.875 806.049 565.638 806.152C565.403 806.255 565.217 806.401 565.078 806.589C564.94 806.777 564.867 806.996 564.86 807.244H562.34C562.347 806.594 562.528 806.023 562.884 805.529C563.239 805.032 563.722 804.643 564.332 804.363C564.947 804.082 565.646 803.942 566.431 803.942C567.212 803.942 567.9 804.078 568.493 804.352C569.086 804.625 569.547 804.998 569.878 805.471C570.208 805.939 570.373 806.47 570.373 807.063C570.377 807.678 570.176 808.184 569.771 808.581C569.37 808.979 568.853 809.224 568.221 809.316V809.402C569.066 809.501 569.704 809.775 570.133 810.222C570.566 810.669 570.781 811.229 570.778 811.9C570.778 812.532 570.591 813.093 570.218 813.583C569.849 814.07 569.334 814.453 568.674 814.734C568.017 815.011 567.262 815.149 566.41 815.149Z" fill="#111111"/>
<rect x="765" y="1067" width="28" height="38" rx="14" transform="rotate(90 765 1067)" fill="#69E18B" fill-opacity="0.76"/>
<path d="M742.849 1075.09V1086H740.217V1077.55H740.153L737.714 1079.04V1076.76L740.404 1075.09H742.849ZM749.41 1086.15C748.579 1086.15 747.842 1086.01 747.199 1085.72C746.56 1085.44 746.056 1085.04 745.687 1084.54C745.317 1084.03 745.129 1083.45 745.122 1082.79H747.775C747.785 1083.03 747.862 1083.24 748.004 1083.43C748.146 1083.61 748.339 1083.75 748.584 1083.85C748.829 1083.96 749.108 1084.01 749.421 1084.01C749.733 1084.01 750.008 1083.95 750.246 1083.84C750.488 1083.73 750.676 1083.57 750.811 1083.38C750.946 1083.18 751.011 1082.95 751.008 1082.7C751.011 1082.44 750.939 1082.21 750.79 1082.02C750.64 1081.82 750.429 1081.66 750.156 1081.55C749.886 1081.44 749.566 1081.39 749.197 1081.39H748.137V1079.51H749.197C749.52 1079.51 749.804 1079.46 750.049 1079.35C750.298 1079.25 750.491 1079.1 750.63 1078.9C750.768 1078.71 750.836 1078.49 750.832 1078.23C750.836 1077.99 750.777 1077.77 750.656 1077.59C750.539 1077.4 750.374 1077.26 750.161 1077.15C749.951 1077.05 749.708 1077 749.431 1077C749.14 1077 748.875 1077.05 748.638 1077.15C748.403 1077.26 748.217 1077.4 748.078 1077.59C747.94 1077.78 747.867 1078 747.86 1078.24H745.34C745.347 1077.59 745.528 1077.02 745.884 1076.53C746.239 1076.03 746.722 1075.64 747.332 1075.36C747.947 1075.08 748.646 1074.94 749.431 1074.94C750.212 1074.94 750.9 1075.08 751.493 1075.35C752.086 1075.63 752.547 1076 752.878 1076.47C753.208 1076.94 753.373 1077.47 753.373 1078.06C753.377 1078.68 753.176 1079.18 752.771 1079.58C752.37 1079.98 751.853 1080.22 751.221 1080.32V1080.4C752.066 1080.5 752.704 1080.77 753.133 1081.22C753.566 1081.67 753.781 1082.23 753.778 1082.9C753.778 1083.53 753.591 1084.09 753.218 1084.58C752.849 1085.07 752.334 1085.45 751.674 1085.73C751.017 1086.01 750.262 1086.15 749.41 1086.15Z" fill="#111111"/>
<rect x="458" y="1357" width="28" height="38" rx="14" transform="rotate(90 458 1357)" fill="#69E18B" fill-opacity="0.76"/>
<path d="M435.849 1365.09V1376H433.217V1367.55H433.153L430.714 1369.04V1366.76L433.404 1365.09H435.849ZM442.41 1376.15C441.579 1376.15 440.842 1376.01 440.199 1375.72C439.56 1375.44 439.056 1375.04 438.687 1374.54C438.317 1374.03 438.129 1373.45 438.122 1372.79H440.775C440.785 1373.03 440.862 1373.24 441.004 1373.43C441.146 1373.61 441.339 1373.75 441.584 1373.85C441.829 1373.96 442.108 1374.01 442.421 1374.01C442.733 1374.01 443.008 1373.95 443.246 1373.84C443.488 1373.73 443.676 1373.57 443.811 1373.38C443.946 1373.18 444.011 1372.95 444.008 1372.7C444.011 1372.44 443.939 1372.21 443.79 1372.02C443.64 1371.82 443.429 1371.66 443.156 1371.55C442.886 1371.44 442.566 1371.39 442.197 1371.39H441.137V1369.51H442.197C442.52 1369.51 442.804 1369.46 443.049 1369.35C443.298 1369.25 443.491 1369.1 443.63 1368.9C443.768 1368.71 443.836 1368.49 443.832 1368.23C443.836 1367.99 443.777 1367.77 443.656 1367.59C443.539 1367.4 443.374 1367.26 443.161 1367.15C442.951 1367.05 442.708 1367 442.431 1367C442.14 1367 441.875 1367.05 441.638 1367.15C441.403 1367.26 441.217 1367.4 441.078 1367.59C440.94 1367.78 440.867 1368 440.86 1368.24H438.34C438.347 1367.59 438.528 1367.02 438.884 1366.53C439.239 1366.03 439.722 1365.64 440.332 1365.36C440.947 1365.08 441.646 1364.94 442.431 1364.94C443.212 1364.94 443.9 1365.08 444.493 1365.35C445.086 1365.63 445.547 1366 445.878 1366.47C446.208 1366.94 446.373 1367.47 446.373 1368.06C446.377 1368.68 446.176 1369.18 445.771 1369.58C445.37 1369.98 444.853 1370.22 444.221 1370.32V1370.4C445.066 1370.5 445.704 1370.77 446.133 1371.22C446.566 1371.67 446.781 1372.23 446.778 1372.9C446.778 1373.53 446.591 1374.09 446.218 1374.58C445.849 1375.07 445.334 1375.45 444.674 1375.73C444.017 1376.01 443.262 1376.15 442.41 1376.15Z" fill="#111111"/>
<rect x="456" y="1439" width="28" height="38" rx="14" transform="rotate(90 456 1439)" fill="#CB9090" fill-opacity="0.42"/>
<path d="M433.849 1447.09V1458H431.217V1449.55H431.153L428.714 1451.04V1448.76L431.404 1447.09H433.849ZM436.127 1456.19V1454.13L440.596 1447.09H442.423V1449.88H441.363L438.748 1454.03V1454.11H445.22V1456.19H436.127ZM441.395 1458V1455.56L441.449 1454.66V1447.09H443.915L443.915 1458H441.395Z" fill="#111111"/>
<rect x="586" y="1329" width="28" height="38" rx="14" transform="rotate(90 586 1329)" fill="#CB9090" fill-opacity="0.42"/>
<path d="M563.849 1337.09V1348H561.217V1339.55H561.153L558.714 1341.04V1338.76L561.404 1337.09H563.849ZM566.127 1346.19V1344.13L570.596 1337.09H572.423V1339.88H571.363L568.748 1344.03V1344.11H575.22V1346.19H566.127ZM571.395 1348V1345.56L571.449 1344.66V1337.09H573.915V1348H571.395Z" fill="#111111"/>
<rect x="438" y="21" width="28" height="38" rx="14" transform="rotate(90 438 21)" fill="#CB9090" fill-opacity="0.86"/>
<path d="M415.849 29.0909V40H413.217V31.5518H413.153L410.714 33.0433V30.7635L413.404 29.0909H415.849ZM422.437 40.1491C421.641 40.1491 420.934 40.0053 420.316 39.7177C419.699 39.43 419.21 39.0341 418.852 38.5298C418.497 38.0256 418.312 37.4467 418.298 36.7933H420.854C420.876 37.1946 421.039 37.5178 421.345 37.7628C421.65 38.0043 422.014 38.125 422.437 38.125C422.767 38.125 423.06 38.0522 423.315 37.9066C423.571 37.761 423.772 37.5568 423.917 37.294C424.063 37.0277 424.134 36.7223 424.13 36.3778C424.134 36.0263 424.061 35.7191 423.912 35.4563C423.766 35.1935 423.564 34.9893 423.305 34.8437C423.049 34.6946 422.754 34.62 422.421 34.62C422.104 34.6165 421.804 34.6857 421.52 34.8278C421.24 34.9698 421.027 35.1634 420.881 35.4084L418.553 34.9716L419.027 29.0909L426.027 29.0909V31.2163L421.195 31.2163L420.945 33.7891H421.009C421.19 33.4872 421.481 33.2386 421.883 33.0433C422.287 32.8445 422.747 32.745 423.262 32.745C423.916 32.745 424.498 32.8977 425.009 33.2031C425.524 33.505 425.929 33.924 426.224 34.4602C426.522 34.9964 426.671 35.6108 426.671 36.3033C426.671 37.0526 426.494 37.7166 426.139 38.2955C425.787 38.8743 425.293 39.3288 424.658 39.6591C424.026 39.9858 423.285 40.1491 422.437 40.1491Z" fill="#111111"/>
<rect x="358" y="280" width="28" height="38" rx="14" transform="rotate(90 358 280)" fill="#CB9090" fill-opacity="0.42"/>
<path d="M335.849 288.091V299H333.217V290.552H333.153L330.714 292.043V289.763L333.404 288.091H335.849ZM338.127 297.189V295.133L342.596 288.091H344.423V290.882H343.363L340.748 295.026V295.112H347.22V297.189H338.127ZM343.395 299V296.56L343.449 295.66V288.091H345.915L345.915 299H343.395Z" fill="#111111"/>
<rect x="575" y="280" width="28" height="38" rx="14" transform="rotate(90 575 280)" fill="#CB9090" fill-opacity="0.42"/>
<path d="M552.849 288.091V299H550.217V290.552H550.153L547.714 292.043V289.763L550.404 288.091H552.849ZM555.127 297.189V295.133L559.596 288.091H561.423V290.882H560.363L557.748 295.026V295.112H564.22V297.189H555.127ZM560.395 299V296.56L560.449 295.66V288.091H562.915V299H560.395Z" fill="#111111"/>
<rect x="609" y="594" width="28" height="38" rx="14" transform="rotate(90 609 594)" fill="#CB9090" fill-opacity="0.42"/>
<path d="M586.849 602.091V613H584.217V604.552H584.153L581.714 606.043V603.763L584.404 602.091H586.849ZM589.127 611.189V609.133L593.596 602.091H595.423V604.882H594.363L591.748 609.026V609.112H598.22V611.189H589.127ZM594.395 613V610.56L594.449 609.66V602.091H596.915V613H594.395Z" fill="#111111"/>
<rect x="317" y="594" width="28" height="38" rx="14" transform="rotate(90 317 594)" fill="#CB9090" fill-opacity="0.42"/>
<path d="M294.849 602.091V613H292.217V604.552H292.153L289.714 606.043V603.763L292.404 602.091H294.849ZM297.127 611.189V609.133L301.596 602.091H303.423V604.882H302.363L299.748 609.026V609.112H306.22V611.189H297.127ZM302.395 613V610.56L302.449 609.66V602.091H304.915L304.915 613H302.395Z" fill="#111111"/>
<rect x="322" y="1329" width="28" height="38" rx="14" transform="rotate(90 322 1329)" fill="#CB9090" fill-opacity="0.42"/>
<path d="M299.849 1337.09V1348H297.217V1339.55H297.153L294.714 1341.04V1338.76L297.404 1337.09H299.849ZM302.127 1346.19V1344.13L306.596 1337.09H308.423V1339.88H307.363L304.748 1344.03V1344.11H311.22V1346.19H302.127ZM307.395 1348V1345.56L307.449 1344.66V1337.09H309.915L309.915 1348H307.395Z" fill="#111111"/>
<rect x="317" y="948" width="28" height="38" rx="14" transform="rotate(90 317 948)" fill="#CB9090" fill-opacity="0.42"/>
<path d="M294.849 956.091V967H292.217V958.552H292.153L289.714 960.043V957.763L292.404 956.091H294.849ZM297.127 965.189V963.133L301.596 956.091H303.423V958.882H302.363L299.748 963.026V963.112H306.22V965.189H297.127ZM302.395 967V964.56L302.449 963.66V956.091H304.915L304.915 967H302.395Z" fill="#111111"/>
<rect x="615" y="948" width="28" height="38" rx="14" transform="rotate(90 615 948)" fill="#CB9090" fill-opacity="0.42"/>
<path d="M592.849 956.091V967H590.217V958.552H590.153L587.714 960.043V957.763L590.404 956.091H592.849ZM595.127 965.189V963.133L599.596 956.091H601.423V958.882H600.363L597.748 963.026V963.112H604.22V965.189H595.127ZM600.395 967V964.56L600.449 963.66V956.091H602.915V967H600.395Z" fill="#111111"/>
<rect x="773" y="508" width="28" height="38" rx="14" transform="rotate(90 773 508)" fill="#69E18B" fill-opacity="0.76"/>
<path d="M750.849 516.091V527H748.217V518.552H748.153L745.714 520.043V517.763L748.404 516.091H750.849ZM757.41 527.149C756.579 527.149 755.842 527.007 755.199 526.723C754.56 526.435 754.056 526.039 753.687 525.535C753.317 525.031 753.129 524.45 753.122 523.793H755.775C755.785 524.031 755.862 524.243 756.004 524.427C756.146 524.608 756.339 524.75 756.584 524.853C756.829 524.956 757.108 525.008 757.421 525.008C757.733 525.008 758.008 524.953 758.246 524.843C758.488 524.729 758.676 524.575 758.811 524.379C758.946 524.18 759.011 523.953 759.008 523.697C759.011 523.442 758.939 523.214 758.79 523.016C758.64 522.817 758.429 522.662 758.156 522.552C757.886 522.442 757.566 522.387 757.197 522.387H756.137V520.512H757.197C757.52 520.512 757.804 520.459 758.049 520.352C758.298 520.246 758.491 520.097 758.63 519.905C758.768 519.71 758.836 519.486 758.832 519.234C758.836 518.989 758.777 518.774 758.656 518.589C758.539 518.401 758.374 518.255 758.161 518.152C757.951 518.049 757.708 517.998 757.431 517.998C757.14 517.998 756.875 518.049 756.638 518.152C756.403 518.255 756.217 518.401 756.078 518.589C755.94 518.777 755.867 518.996 755.86 519.244H753.34C753.347 518.594 753.528 518.023 753.884 517.529C754.239 517.032 754.722 516.643 755.332 516.363C755.947 516.082 756.646 515.942 757.431 515.942C758.212 515.942 758.9 516.078 759.493 516.352C760.086 516.625 760.547 516.998 760.878 517.471C761.208 517.939 761.373 518.47 761.373 519.063C761.377 519.678 761.176 520.184 760.771 520.581C760.37 520.979 759.853 521.224 759.221 521.316V521.402C760.066 521.501 760.704 521.775 761.133 522.222C761.566 522.669 761.781 523.229 761.778 523.9C761.778 524.532 761.591 525.093 761.218 525.583C760.849 526.07 760.334 526.453 759.674 526.734C759.017 527.011 758.262 527.149 757.41 527.149Z" fill="#111111"/>
<rect x="406" y="566" width="28" height="35" rx="14" transform="rotate(90 406 566)" fill="#07B5CA"/>
<path d="M386.849 574.091V585H384.217V576.552H384.153L381.714 578.043V575.763L384.404 574.091H386.849ZM394.305 574.091V585H391.673V576.552H391.609L389.17 578.043V575.763L391.86 574.091H394.305Z" fill="#111111"/>
<rect x="497" y="667" width="28" height="31" rx="14" transform="rotate(90 497 667)" fill="#07B5CA"/>
<path d="M480.911 674.942C481.508 674.942 482.078 675.039 482.621 675.235C483.164 675.426 483.649 675.734 484.075 676.156C484.501 676.575 484.837 677.127 485.082 677.813C485.327 678.498 485.45 679.335 485.45 680.322C485.453 681.231 485.347 682.046 485.13 682.767C484.913 683.484 484.603 684.095 484.198 684.599C483.797 685.103 483.314 685.489 482.749 685.755C482.184 686.018 481.554 686.149 480.858 686.149C480.091 686.149 479.414 686.002 478.828 685.707C478.246 685.409 477.779 685.007 477.428 684.503C477.08 683.999 476.872 683.434 476.804 682.809H479.398C479.48 683.172 479.652 683.445 479.915 683.63C480.178 683.811 480.492 683.901 480.858 683.901C481.526 683.901 482.025 683.612 482.355 683.033C482.685 682.454 482.85 681.668 482.85 680.673H482.786C482.634 681 482.417 681.281 482.136 681.515C481.859 681.749 481.538 681.929 481.172 682.053C480.806 682.177 480.421 682.239 480.016 682.239C479.363 682.239 478.786 682.09 478.285 681.792C477.788 681.494 477.397 681.083 477.113 680.561C476.833 680.039 476.691 679.443 476.687 678.772C476.684 678.019 476.859 677.355 477.214 676.779C477.57 676.201 478.065 675.75 478.701 675.426C479.336 675.1 480.073 674.938 480.911 674.942ZM480.927 676.966C480.6 676.966 480.309 677.042 480.054 677.195C479.801 677.348 479.603 677.554 479.457 677.813C479.311 678.072 479.24 678.363 479.244 678.686C479.248 679.01 479.32 679.301 479.462 679.56C479.608 679.819 479.805 680.025 480.054 680.178C480.306 680.331 480.593 680.407 480.917 680.407C481.158 680.407 481.382 680.363 481.588 680.274C481.794 680.185 481.973 680.062 482.126 679.906C482.278 679.746 482.397 679.562 482.483 679.352C482.571 679.143 482.614 678.919 482.61 678.681C482.607 678.365 482.532 678.077 482.387 677.818C482.241 677.559 482.04 677.353 481.785 677.2C481.533 677.044 481.247 676.966 480.927 676.966Z" fill="#111111"/>
<rect x="497" y="1027" width="28" height="30" rx="14" transform="rotate(90 497 1027)" fill="#07B5CA"/>
<path d="M478.268 1046L482.668 1037.29V1037.22H477.522V1035.09H485.395V1037.23L480.979 1046H478.268Z" fill="#111111"/>
<rect x="404" y="1027" width="28" height="30" rx="14" transform="rotate(90 404 1027)" fill="#07B5CA"/>
<path d="M385.268 1046L389.668 1037.29V1037.22H384.522V1035.09H392.395V1037.23L387.979 1046H385.268Z" fill="#111111"/>
<rect x="786" y="835" width="28" height="44" rx="14" transform="rotate(90 786 835)" fill="#07B5CA"/>
<path d="M752.671 852.189V850.133L757.14 843.091H758.967V845.882H757.907L755.292 850.026V850.112H761.764V852.189H752.671ZM757.939 854V851.56L757.993 850.66V843.091H760.459V854H757.939ZM764.53 854.154C764.146 854.154 763.818 854.02 763.544 853.75C763.274 853.48 763.141 853.153 763.145 852.77C763.141 852.393 763.274 852.072 763.544 851.805C763.818 851.536 764.146 851.401 764.53 851.401C764.892 851.401 765.212 851.536 765.489 851.805C765.769 852.072 765.911 852.393 765.915 852.77C765.911 853.025 765.844 853.258 765.712 853.467C765.584 853.677 765.416 853.844 765.206 853.968C765 854.092 764.775 854.154 764.53 854.154ZM767.609 854L772.008 845.286V845.216H766.863V843.091H774.736V845.232L770.32 854H767.609Z" fill="#111111"/>
<rect x="770" y="294" width="28" height="45" rx="14" transform="rotate(90 770 294)" fill="#07B5CA"/>
<path d="M735.671 311.189V309.133L740.14 302.091H741.967V304.882H740.907L738.292 309.026V309.112H744.764V311.189H735.671ZM740.939 313V310.56L740.993 309.66V302.091H743.459V313H740.939ZM747.53 313.154C747.146 313.154 746.818 313.02 746.544 312.75C746.274 312.48 746.141 312.153 746.145 311.77C746.141 311.393 746.274 311.072 746.544 310.805C746.818 310.536 747.146 310.401 747.53 310.401C747.892 310.401 748.212 310.536 748.489 310.805C748.769 311.072 748.911 311.393 748.915 311.77C748.911 312.025 748.844 312.258 748.712 312.467C748.584 312.677 748.416 312.844 748.206 312.968C748 313.092 747.775 313.154 747.53 313.154ZM754.486 301.942C755.083 301.942 755.653 302.039 756.196 302.235C756.74 302.426 757.224 302.734 757.65 303.156C758.077 303.575 758.412 304.127 758.657 304.813C758.902 305.498 759.025 306.335 759.025 307.322C759.028 308.231 758.922 309.046 758.705 309.767C758.489 310.484 758.178 311.095 757.773 311.599C757.372 312.103 756.889 312.489 756.324 312.755C755.759 313.018 755.129 313.149 754.433 313.149C753.666 313.149 752.99 313.002 752.404 312.707C751.821 312.409 751.354 312.007 751.003 311.503C750.655 310.999 750.447 310.434 750.38 309.809H752.974C753.055 310.172 753.228 310.445 753.49 310.63C753.753 310.811 754.067 310.901 754.433 310.901C755.101 310.901 755.6 310.612 755.93 310.033C756.26 309.454 756.425 308.668 756.425 307.673H756.361C756.209 308 755.992 308.281 755.712 308.515C755.435 308.749 755.113 308.929 754.747 309.053C754.382 309.177 753.996 309.239 753.592 309.239C752.938 309.239 752.361 309.09 751.86 308.792C751.363 308.494 750.973 308.083 750.688 307.561C750.408 307.039 750.266 306.443 750.262 305.772C750.259 305.019 750.435 304.355 750.79 303.779C751.145 303.201 751.64 302.75 752.276 302.426C752.911 302.1 753.648 301.938 754.486 301.942ZM754.502 303.966C754.176 303.966 753.884 304.042 753.629 304.195C753.377 304.348 753.178 304.554 753.032 304.813C752.887 305.072 752.816 305.363 752.819 305.686C752.823 306.01 752.896 306.301 753.038 306.56C753.183 306.819 753.38 307.025 753.629 307.178C753.881 307.331 754.169 307.407 754.492 307.407C754.733 307.407 754.957 307.363 755.163 307.274C755.369 307.185 755.548 307.062 755.701 306.906C755.854 306.746 755.973 306.562 756.058 306.352C756.147 306.143 756.189 305.919 756.186 305.681C756.182 305.365 756.108 305.077 755.962 304.818C755.816 304.559 755.616 304.353 755.36 304.2C755.108 304.044 754.822 303.966 754.502 303.966Z" fill="#111111"/>
<rect x="779" y="634" width="28" height="45" rx="14" transform="rotate(90 779 634)" fill="#07B5CA"/>
<path d="M744.671 651.189V649.133L749.14 642.091H750.967V644.882H749.907L747.292 649.026V649.112H753.764V651.189H744.671ZM749.939 653V650.56L749.993 649.66V642.091H752.459V653H749.939ZM756.53 653.154C756.146 653.154 755.818 653.02 755.544 652.75C755.274 652.48 755.141 652.153 755.145 651.77C755.141 651.393 755.274 651.072 755.544 650.805C755.818 650.536 756.146 650.401 756.53 650.401C756.892 650.401 757.212 650.536 757.489 650.805C757.769 651.072 757.911 651.393 757.915 651.77C757.911 652.025 757.844 652.258 757.712 652.467C757.584 652.677 757.416 652.844 757.206 652.968C757 653.092 756.775 653.154 756.53 653.154ZM763.407 653.149C762.558 653.149 761.8 653.014 761.132 652.744C760.468 652.471 759.946 652.102 759.566 651.636C759.19 651.168 759.001 650.638 759.001 650.049C759.001 649.598 759.11 649.184 759.326 648.808C759.543 648.431 759.836 648.119 760.205 647.87C760.578 647.618 760.994 647.457 761.452 647.386V647.3C760.851 647.19 760.36 646.912 759.976 646.464C759.596 646.017 759.406 645.493 759.406 644.893C759.406 644.325 759.578 643.819 759.923 643.375C760.271 642.931 760.745 642.581 761.345 642.325C761.949 642.07 762.636 641.942 763.407 641.942C764.177 641.942 764.862 642.07 765.463 642.325C766.066 642.581 766.54 642.931 766.885 643.375C767.233 643.819 767.407 644.325 767.407 644.893C767.407 645.496 767.213 646.022 766.826 646.469C766.443 646.913 765.954 647.19 765.361 647.3V647.386C765.816 647.457 766.228 647.618 766.597 647.87C766.97 648.119 767.265 648.431 767.481 648.808C767.702 649.184 767.812 649.598 767.812 650.049C767.812 650.638 767.622 651.168 767.242 651.636C766.862 652.102 766.34 652.471 765.676 652.744C765.015 653.014 764.259 653.149 763.407 653.149ZM763.407 651.279C763.73 651.279 764.014 651.219 764.259 651.098C764.504 650.974 764.696 650.802 764.834 650.582C764.976 650.362 765.047 650.113 765.047 649.836C765.047 649.552 764.976 649.3 764.834 649.08C764.692 648.859 764.497 648.687 764.248 648.563C764.003 648.435 763.723 648.371 763.407 648.371C763.094 648.371 762.813 648.435 762.565 648.563C762.316 648.687 762.121 648.859 761.979 649.08C761.837 649.3 761.766 649.552 761.766 649.836C761.766 650.113 761.835 650.362 761.974 650.582C762.116 650.798 762.309 650.969 762.554 651.093C762.803 651.217 763.087 651.279 763.407 651.279ZM763.407 646.512C763.684 646.512 763.929 646.455 764.142 646.342C764.358 646.228 764.527 646.07 764.648 645.868C764.772 645.665 764.834 645.436 764.834 645.18C764.834 644.925 764.772 644.699 764.648 644.504C764.527 644.309 764.36 644.156 764.147 644.046C763.934 643.932 763.687 643.875 763.407 643.875C763.13 643.875 762.883 643.932 762.666 644.046C762.449 644.156 762.281 644.309 762.16 644.504C762.039 644.699 761.979 644.925 761.979 645.18C761.979 645.436 762.039 645.665 762.16 645.868C762.284 646.066 762.455 646.224 762.671 646.342C762.888 646.455 763.133 646.512 763.407 646.512Z" fill="#111111"/>
<rect x="152" y="1397" width="28" height="41" rx="14" transform="rotate(90 152 1397)" fill="#07B5CA"/>
<path d="M121.671 1414.19V1412.13L126.14 1405.09H127.967V1407.88H126.907L124.292 1412.03V1412.11H130.764V1414.19H121.671ZM126.939 1416V1413.56L126.993 1412.66V1405.09H129.459V1416H126.939ZM133.53 1416.15C133.146 1416.15 132.818 1416.02 132.544 1415.75C132.274 1415.48 132.141 1415.15 132.145 1414.77C132.141 1414.39 132.274 1414.07 132.544 1413.81C132.818 1413.54 133.146 1413.4 133.53 1413.4C133.892 1413.4 134.212 1413.54 134.489 1413.81C134.769 1414.07 134.911 1414.39 134.915 1414.77C134.911 1415.03 134.844 1415.26 134.712 1415.47C134.584 1415.68 134.416 1415.84 134.206 1415.97C134 1416.09 133.775 1416.15 133.53 1416.15ZM140.267 1405.09L140.267 1416H137.635V1407.55H137.571L135.132 1409.04V1406.76L137.822 1405.09H140.267Z" fill="#111111"/>
<rect x="144" y="1024" width="28" height="45" rx="14" transform="rotate(90 144 1024)" fill="#07B5CA"/>
<path d="M109.671 1041.19V1039.13L114.14 1032.09H115.967V1034.88H114.907L112.292 1039.03V1039.11H118.764V1041.19H109.671ZM114.939 1043V1040.56L114.993 1039.66V1032.09H117.459V1043H114.939ZM121.53 1043.15C121.146 1043.15 120.818 1043.02 120.544 1042.75C120.274 1042.48 120.141 1042.15 120.145 1041.77C120.141 1041.39 120.274 1041.07 120.544 1040.81C120.818 1040.54 121.146 1040.4 121.53 1040.4C121.892 1040.4 122.212 1040.54 122.489 1040.81C122.769 1041.07 122.911 1041.39 122.915 1041.77C122.911 1042.03 122.844 1042.26 122.712 1042.47C122.584 1042.68 122.416 1042.84 122.206 1042.97C122 1043.09 121.775 1043.15 121.53 1043.15ZM128.441 1043.15C127.61 1043.15 126.873 1043.01 126.231 1042.72C125.591 1042.44 125.087 1042.04 124.718 1041.54C124.348 1041.03 124.16 1040.45 124.153 1039.79H126.806C126.816 1040.03 126.893 1040.24 127.035 1040.43C127.177 1040.61 127.37 1040.75 127.615 1040.85C127.861 1040.96 128.139 1041.01 128.452 1041.01C128.764 1041.01 129.04 1040.95 129.277 1040.84C129.519 1040.73 129.707 1040.57 129.842 1040.38C129.977 1040.18 130.043 1039.95 130.039 1039.7C130.043 1039.44 129.97 1039.21 129.821 1039.02C129.672 1038.82 129.46 1038.66 129.187 1038.55C128.917 1038.44 128.597 1038.39 128.228 1038.39H127.168V1036.51H128.228C128.551 1036.51 128.835 1036.46 129.08 1036.35C129.329 1036.25 129.522 1036.1 129.661 1035.9C129.799 1035.71 129.867 1035.49 129.863 1035.23C129.867 1034.99 129.808 1034.77 129.688 1034.59C129.57 1034.4 129.405 1034.26 129.192 1034.15C128.983 1034.05 128.739 1034 128.462 1034C128.171 1034 127.907 1034.05 127.669 1034.15C127.434 1034.26 127.248 1034.4 127.109 1034.59C126.971 1034.78 126.898 1035 126.891 1035.24H124.372C124.379 1034.59 124.56 1034.02 124.915 1033.53C125.27 1033.03 125.753 1032.64 126.364 1032.36C126.978 1032.08 127.678 1031.94 128.462 1031.94C129.244 1031.94 129.931 1032.08 130.524 1032.35C131.117 1032.63 131.579 1033 131.909 1033.47C132.239 1033.94 132.404 1034.47 132.404 1035.06C132.408 1035.68 132.207 1036.18 131.802 1036.58C131.401 1036.98 130.884 1037.22 130.252 1037.32V1037.4C131.097 1037.5 131.735 1037.77 132.165 1038.22C132.598 1038.67 132.813 1039.23 132.809 1039.9C132.809 1040.53 132.623 1041.09 132.25 1041.58C131.88 1042.07 131.365 1042.45 130.705 1042.73C130.048 1043.01 129.293 1043.15 128.441 1043.15Z" fill="#111111"/>
<defs>
<filter id="filter0_d_139_250" x="179" y="325" width="96.106" height="106.705" filterUnits="userSpaceOnUse" color-interpolation-filters="sRGB">
<feFlood flood-opacity="0" result="BackgroundImageFix"/>
<feColorMatrix in="SourceAlpha" type="matrix" values="0 0 0 0 0 0 0 0 0 0 0 0 0 0 0 0 0 0 127 0" result="hardAlpha"/>
<feOffset dy="4"/>
<feGaussianBlur stdDeviation="2"/>
<feComposite in2="hardAlpha" operator="out"/>
<feColorMatrix type="matrix" values="0 0 0 0 0 0 0 0 0 0 0 0 0 0 0 0 0 0 0.25 0"/>
<feBlend mode="normal" in2="BackgroundImageFix" result="effect1_dropShadow_139_250"/>
<feBlend mode="normal" in="SourceGraphic" in2="effect1_dropShadow_139_250" result="shape"/>
</filter>
</defs>
</svg>
